<?xml version="1.0" encoding="utf-8"?>
<!-- Generator: Adobe Illustrator 24.2.3, SVG Export Plug-In . SVG Version: 6.00 Build 0)  -->
<svg version="1.1" id="Layer_1" xmlns="http://www.w3.org/2000/svg" xmlns:xlink="http://www.w3.org/1999/xlink" x="0px" y="0px"
	 viewBox="0 0 1000 1000" style="enable-background:new 0 0 1000 1000;" xml:space="preserve">
<style type="text/css">
	.st0{clip-path:url(#SVGID_2_);}
	.st1{clip-path:url(#SVGID_4_);fill:#FFFFFF;}
	.st2{clip-path:url(#SVGID_4_);fill:#1E293A;}
	.st3{clip-path:url(#SVGID_4_);fill:#F28D23;}
</style>
<g id="Artwork_15_1_">
	<g>
		<defs>
			<rect id="SVGID_1_" x="33.9" width="932.2" height="1000"/>
		</defs>
		<clipPath id="SVGID_2_">
			<use xlink:href="#SVGID_1_"  style="overflow:visible;"/>
		</clipPath>
		<g class="st0">
			<defs>
				<rect id="SVGID_3_" x="33.9" y="0" width="932.2" height="1000"/>
			</defs>
			<clipPath id="SVGID_4_">
				<use xlink:href="#SVGID_3_"  style="overflow:visible;"/>
			</clipPath>
			<path class="st1" d="M500,1000c-30.2,0-75.1-5.1-117.4-29.5L151.3,836.9c-61-35.2-106.7-107-115.1-180
				c-1.2-6.3-2.3-14.1-2.3-23.4V366.4c0-9.4,1.1-17.3,2.3-23.5c7.1-61,41.2-122.1,89.9-161.2c5.3-4.7,13.4-11.9,25-18.6L382.6,29.5
				C424.9,5.1,469.8,0,500,0c30.2,0,75.1,5.1,117.4,29.6l231.3,133.5c12.1,7,20.4,14.5,24.9,18.5c0,0-0.8-0.6-1.6-1.2
				c57.2,45,94,117.9,94,186.1v267.1c0,78.5-49.4,164-117.4,203.3L617.4,970.4C575.1,994.9,530.2,1000,500,1000"/>
			<path class="st2" d="M842.4,308.8c-9.4-17.1-22.1-32.7-36.4-44c-3.7-2.9-7.1-6.6-10.9-8.9l-102.4-59.1l-128.9-74.4
				c-17.5-10.1-40.6-15.2-63.8-15.2c-23.1,0-46.2,5.1-63.8,15.2l-128.9,74.4L204.9,256c-3.9,2.2-7.3,6-11,8.9
				c-14.3,11.3-26.8,26.9-36,44.1L500,489.7L842.4,308.8z"/>
			<path class="st1" d="M500,523.4l-382.4-202l14.1-26.4c11.4-21.3,26.5-39.8,43.8-53.4c0.9-0.7,1.7-1.5,2.5-2.2
				c2.9-2.6,6.9-6.1,12-9.1L421.3,96.6c21.4-12.4,49.3-19.2,78.7-19.2c29.3,0,57.3,6.8,78.7,19.2L810,230.2c5.1,3,9,6.5,11.9,9.1
				c0.8,0.7,1.6,1.5,2.5,2.1c17.3,13.6,32.5,31.9,44.1,53.1L883,321L500,523.4z M201.6,298.3L500,456l298.5-157.7
				c-3.5-3.8-7.1-7.2-10.9-10.1c-1.8-1.4-3.7-3.1-5.5-4.7c-0.8-0.8-1.6-1.5-2.5-2.2L548.9,148.2c-12.3-7.1-30.1-11.2-48.9-11.2
				c-18.8,0-36.6,4.1-48.9,11.2L219.8,281.8c-0.3,0.3-1.2,1.1-2,1.9c-1.8,1.6-3.6,3.2-5.4,4.6C208.6,291.2,205,294.6,201.6,298.3"/>
			<path class="st2" d="M500,489.7L157.9,309c-8.4,15.8-14.1,32.9-15.5,49.3c-0.2,2.7-1.3,5.6-1.3,8.2v267.1c0,2.6,1.1,5.5,1.3,8.2
				c3.4,38.8,29.7,83.3,62.5,102.3l231.3,133.6c17.5,10.1,40.7,15.2,63.8,15.2V489.7z"/>
			<path class="st1" d="M529.8,922.5H500c-29.3,0-57.3-6.8-78.7-19.2L190,769.8c-40.4-23.3-72.9-76.1-77.2-125.5
				c-0.6-2.2-1.4-6.1-1.4-10.8V366.4c0-4.7,0.8-8.6,1.3-10.9c1.8-19.7,8.3-40.7,19-60.6l14-26.2l384.2,203V922.5z M170.9,631.8
				c0.6,2.9,1,5.2,1.2,7.4c2.6,29.9,24,65.4,47.7,79l231.3,133.6c5.4,3.1,11.9,5.7,19.1,7.5V507.6L173.6,351
				c-0.8,3.4-1.3,6.7-1.5,9.9c-0.2,2.4-0.7,4.8-1.2,7.3V631.8z"/>
			<path class="st3" d="M500,489.7L500,489.7v403.1c23.1,0,46.2-5.1,63.8-15.2L795.1,744c35.1-20.3,63.8-69.9,63.8-110.5V366.4
				c0-18.7-6.3-39.1-16.5-57.6L500,489.7z"/>
			<path class="st1" d="M500,922.5h-29.8V471.7l384.2-202.9l14.1,25.7c13.2,24.1,20.2,49,20.2,72v267.1
				c0,50.9-34.6,110.8-78.7,136.2L578.7,903.4C557.3,915.7,529.3,922.5,500,922.5 M529.8,507.6v351.7c7.2-1.9,13.7-4.4,19.1-7.5
				l231.4-133.6c26-15,48.9-54.6,48.9-84.7V366.4c0-5-0.7-10.3-2-15.9L529.8,507.6z"/>
		</g>
	</g>
</g>
</svg>
